# xmcd CD database file generated by OrangeCD 6.0
#
# Track frame offsets:
#	150
#	18945
#	40640
#	81202
#	101187
#	127807
#	159082
#	189667
#	210525
#	262167
#	279325
#	302632
#	334670
#	337732
#
# Disc length: 4622 seconds
#
# Revision: 0
# Processed by: cddbd v1.5.2PL0 Copyright (c) Steve Scherf et al.
# Submitted via: OrangeCD 6.0
#
DISCID=b2120c0e
DTITLE=Stevie Ray Vaughan - Fox Theatre, Atlanta 12-31-1986
DYEAR=1900
DGENRE=
TTITLE0=Looking Out The Window
TTITLE1=Look At Little Sister
TTITLE2=Mary Had A little Lamb
TTITLE3=Supersistion
TTITLE4=Willy The Wimp
TTITLE5=Cold Shot
TTITLE6=Couldn't Stand The Weather
TTITLE7=Introduction Jam
TTITLE8=Life Without You
TTITLE9=Happy New Year Blues
TTITLE10=Rude Mood
TTITLE11=Blues (with Lonnie Mac)
TTITLE12=Wham (With Lonnie Mac)
TTITLE13=Texas Flood
EXTD=
EXTT0=
EXTT1=
EXTT2=
EXTT3=
EXTT4=
EXTT5=
EXTT6=
EXTT7=
EXTT8=
EXTT9=
EXTT10=
EXTT11=
EXTT12=
EXTT13=
PLAYORDER=
